<svg width="308" height="308" viewBox="0 0 308 308" fill="none" xmlns="http://www.w3.org/2000/svg">
<path fill-rule="evenodd" clip-rule="evenodd" d="M154 228.711C195.262 228.711 228.711 195.262 228.711 154C228.711 112.738 195.262 79.2891 154 79.2891C112.738 79.2891 79.2891 112.738 79.2891 154C79.2891 195.262 112.738 228.711 154 228.711ZM154 231C196.526 231 231 196.526 231 154C231 111.474 196.526 77 154 77C111.474 77 77 111.474 77 154C77 196.526 111.474 231 154 231Z" fill="white"/>
<path fill-rule="evenodd" clip-rule="evenodd" d="M153.5 253.711C208.845 253.711 253.711 208.845 253.711 153.5C253.711 98.155 208.845 53.2891 153.5 53.2891C98.155 53.2891 53.2891 98.155 53.2891 153.5C53.2891 208.845 98.155 253.711 153.5 253.711ZM153.5 256C210.109 256 256 210.109 256 153.5C256 96.8908 210.109 51 153.5 51C96.8908 51 51 96.8908 51 153.5C51 210.109 96.8908 256 153.5 256Z" fill="white" fill-opacity="0.7"/>
<path fill-rule="evenodd" clip-rule="evenodd" d="M154 279.711C223.428 279.711 279.711 223.428 279.711 154C279.711 84.5718 223.428 28.2891 154 28.2891C84.5718 28.2891 28.2891 84.5718 28.2891 154C28.2891 223.428 84.5718 279.711 154 279.711ZM154 282C224.692 282 282 224.692 282 154C282 83.3076 224.692 26 154 26C83.3076 26 26 83.3076 26 154C26 224.692 83.3076 282 154 282Z" fill="white" fill-opacity="0.5"/>
<path fill-rule="evenodd" clip-rule="evenodd" d="M154 305.711C237.788 305.711 305.711 237.788 305.711 154C305.711 70.2124 237.788 2.28908 154 2.28908C70.2124 2.28908 2.28908 70.2124 2.28908 154C2.28908 237.788 70.2124 305.711 154 305.711ZM154 308C239.052 308 308 239.052 308 154C308 68.9482 239.052 0 154 0C68.9482 0 0 68.9482 0 154C0 239.052 68.9482 308 154 308Z" fill="white" fill-opacity="0.3"/>
<path fill-rule="evenodd" clip-rule="evenodd" d="M132.47 104.848C132.59 104.798 132.712 104.747 132.833 104.697C132.908 104.667 132.982 104.636 133.057 104.606C160.197 93.5987 191.122 106.677 202.13 133.818C213.137 160.958 200.059 191.884 172.918 202.891C172.844 202.921 172.769 202.952 172.694 202.981C172.573 203.03 172.451 203.078 172.329 203.126C145.331 213.709 114.773 200.624 103.845 173.68C92.9171 146.735 105.728 116.061 132.47 104.848ZM173.712 200.568C193.194 191.958 204.758 172.533 204.181 152.282L178.346 162.76C180.182 175.743 178.46 188.763 173.712 200.568ZM178.058 160.902L204.089 150.345C203.734 145.04 202.541 139.701 200.434 134.506C197.818 128.053 194.035 122.425 189.428 117.763L163.808 128.154C167.763 133.302 171.097 139.061 173.654 145.367C175.726 150.475 177.182 155.681 178.058 160.902ZM162.047 128.868C166.04 133.99 169.398 139.741 171.958 146.054C174.032 151.167 175.474 156.38 176.32 161.607L140.911 175.968C137.878 171.628 135.281 166.884 133.207 161.771C130.647 155.458 129.05 148.992 128.348 142.536L162.047 128.868ZM162.627 126.658C155.204 117.501 145.766 110.391 135.244 105.72C153.934 98.8037 174.244 103.507 187.996 116.37L162.627 126.658ZM160.852 127.378L128.166 140.635C127.217 129.02 129.144 117.486 133.547 106.977C144.026 111.45 153.443 118.383 160.852 127.378ZM126.392 141.355C125.341 129.63 127.153 117.972 131.435 107.304C113.694 115.519 102.725 132.793 101.832 151.315L126.392 141.355ZM126.586 143.25L101.775 153.313C101.717 159.866 102.924 166.54 105.541 172.992C107.648 178.188 110.511 182.849 113.952 186.902L139.173 176.673C136.165 172.316 133.584 167.567 131.512 162.458C128.954 156.153 127.334 149.699 126.586 143.25ZM140.261 178.206C147.977 188.786 158.265 196.921 169.876 202.085C150.135 209.001 128.732 203.076 115.235 188.356L140.261 178.206ZM142.01 177.497L176.597 163.47C178.332 176.332 176.491 189.217 171.619 200.848C160.021 195.897 149.725 187.934 142.01 177.497Z" fill="white"/>
</svg>
