<svg xmlns="http://www.w3.org/2000/svg" width="207" height="207" fill="none" xmlns:v="https://vecta.io/nano"><rect x="2.5" y="2.5" width="202" height="202" rx="32.5" fill="#3e3e3e" stroke="#fff" stroke-width="5"/><g fill="#fff"><path fill-rule="evenodd" d="M132.679 59.423c.243-.367.486-.611.85-.977l11.532-11.605c3.763-3.787 9.954-3.787 13.839 0 3.763 3.787 3.763 10.017 0 13.804l-9.954 9.895c8.618 8.185 13.717 18.324 15.78 30.295 1.093 6.597-.971 9.162-8.254 9.162H50.62c-7.769.122-10.44-2.687-9.104-9.528 2.185-10.994 6.676-20.401 13.596-27.975L43.822 61.255c-3.763-3.787-3.763-10.017 0-13.804s9.954-3.787 13.838 0l11.532 11.605c.486.489.971 1.099 1.335 1.71 2.185-1.222 4.613-2.321 7.041-3.298 19.058-7.574 37.63-6.719 55.11 1.954zm-53.29 28.585c0 2.688-2.185 4.886-4.855 4.886s-4.856-2.199-4.856-4.886 2.185-4.886 4.856-4.886 4.855 2.199 4.855 4.886zm52.198 4.886c2.67 0 4.855-2.199 4.855-4.886s-2.185-4.886-4.855-4.886-4.856 2.199-4.856 4.886 2.185 4.886 4.856 4.886z"/><path d="M50.45 162c2.526 0 3.849-1.3 4.811-4.491l1.563-4.609h13.23l1.443 4.609C72.461 160.7 73.904 162 76.43 162c2.766 0 4.57-1.536 4.57-4.018 0-.946-.241-2.127-.722-3.664l-8.66-24.936C70.055 124.773 67.89 123 63.68 123s-6.375 1.891-7.938 6.382l-8.78 24.936c-.722 1.891-.962 2.955-.962 3.9 0 2.127 1.804 3.782 4.45 3.782zm8.299-15.955l4.45-14.654h.481l4.45 14.654h-9.382zM94.779 162c3.063 0 4.901-1.897 4.901-5.097v-7.587h6.494c9.19 0 14.826-4.742 14.826-13.158 0-7.942-5.514-13.158-14.336-13.158H96.372c-4.656 0-6.371 1.778-6.371 6.401v27.502c0 3.319 1.715 5.097 4.779 5.097zm4.901-19.559V130.35h5.514c3.921 0 6.126 2.252 6.126 6.045 0 4.505-2.205 6.046-7.229 6.046H99.68zm56.641 20.439c2.832 0 4.679-1.808 4.679-4.458 0-1.326-.493-2.289-1.97-4.338l-10.097-13.253 9.481-10c1.355-1.325 1.724-2.289 1.724-3.494 0-2.289-1.847-4.217-4.31-4.217-1.354 0-2.462.603-3.817 2.049l-13.545 14.337h-.615v-11.325c0-3.253-1.724-5.181-4.926-5.181-3.078 0-4.925 1.807-4.925 5.181v29.638c0 3.253 1.847 5.181 5.049 5.181 3.078 0 4.802-1.807 4.802-5.181v-7.349l3.694-3.735 9.851 13.132c1.6 2.049 3.078 3.013 4.925 3.013z"/></g></svg>