<svg xmlns="http://www.w3.org/2000/svg" width="607" height="207" fill="none" xmlns:v="https://vecta.io/nano"><rect x="2.5" y="2.5" width="602" height="202" rx="32.5" fill="#3e3e3e" stroke="#fff" stroke-width="5"/><g fill="#fff"><path fill-rule="evenodd" d="M52.784 160.363l51.338-51.193 18.096 18.043-61.03 33.837a7.62 7.62 0 0 1-7.468-.053l-.936-.634zm46.161-56.355L50 152.811V55.204l48.945 48.804h0zm30.586-20.168l23.912 13.255c2.349 1.306 3.807 3.754 3.807 6.406s-1.458 5.099-3.807 6.406l-24.565 13.615-19.574-19.514 20.227-20.168h0zM52.243 47.112a7.4 7.4 0 0 1 1.477-1.107 7.62 7.62 0 0 1 7.468-.054l61.683 34.198-18.749 18.696-51.879-51.734z"/><path d="M229.67 150.031c-1.898 2.274-4.582 4.043-8.05 5.309-3.469 1.242-7.313 1.863-11.532 1.863-4.429 0-8.32-.961-11.671-2.883-3.329-1.945-5.907-4.758-7.735-8.437-1.805-3.68-2.73-8.004-2.777-12.973v-3.48c0-5.11.855-9.528 2.566-13.254 1.735-3.75 4.219-6.61 7.453-8.578 3.258-1.993 7.067-2.989 11.426-2.989 6.07 0 10.817 1.453 14.238 4.36 3.422 2.883 5.45 7.09 6.082 12.621h-10.265c-.469-2.93-1.512-5.074-3.129-6.434-1.594-1.359-3.797-2.039-6.609-2.039-3.586 0-6.317 1.348-8.192 4.043s-2.824 6.703-2.848 12.024v3.269c0 5.367 1.02 9.422 3.059 12.164s5.027 4.113 8.965 4.113c3.961 0 6.785-.843 8.473-2.531v-8.824h-9.598v-7.77h20.144v20.426zm6.329-12.902c0-3.774.726-7.137 2.179-10.09s3.539-5.238 6.258-6.855c2.742-1.618 5.918-2.426 9.527-2.426 5.133 0 9.317 1.57 12.551 4.711 3.258 3.14 5.074 7.406 5.449 12.797l.071 2.601c0 5.836-1.629 10.524-4.887 14.063-3.258 3.515-7.629 5.273-13.113 5.273s-9.867-1.758-13.149-5.273c-3.258-3.516-4.886-8.297-4.886-14.344v-.457zm10.16.738c0 3.61.679 6.375 2.039 8.297 1.359 1.898 3.304 2.848 5.836 2.848 2.461 0 4.383-.938 5.765-2.813 1.383-1.898 2.075-4.922 2.075-9.07 0-3.539-.692-6.281-2.075-8.227s-3.328-2.918-5.836-2.918c-2.484 0-4.406.973-5.765 2.918-1.36 1.922-2.039 4.91-2.039 8.965zm30.55-.738c0-3.774.727-7.137 2.18-10.09s3.539-5.238 6.258-6.855c2.742-1.618 5.918-2.426 9.527-2.426 5.133 0 9.317 1.57 12.551 4.711 3.258 3.14 5.074 7.406 5.449 12.797l.071 2.601c0 5.836-1.629 10.524-4.887 14.063-3.258 3.515-7.629 5.273-13.113 5.273s-9.868-1.758-13.149-5.273c-3.258-3.516-4.887-8.297-4.887-14.344v-.457zm10.161.738c0 3.61.679 6.375 2.039 8.297 1.359 1.898 3.304 2.848 5.836 2.848 2.461 0 4.382-.938 5.765-2.813 1.383-1.898 2.074-4.922 2.074-9.07 0-3.539-.691-6.281-2.074-8.227s-3.328-2.918-5.836-2.918c-2.484 0-4.406.973-5.765 2.918-1.36 1.922-2.039 4.91-2.039 8.965zm30.656-.668c0-5.836 1.383-10.535 4.148-14.097 2.789-3.563 6.539-5.344 11.25-5.344 4.172 0 7.418 1.43 9.739 4.289l.421-3.586h9.211v36.773c0 3.328-.761 6.223-2.285 8.684-1.5 2.461-3.621 4.336-6.363 5.625s-5.953 1.934-9.633 1.934c-2.789 0-5.508-.563-8.156-1.688-2.649-1.101-4.652-2.531-6.012-4.289l4.5-6.188c2.531 2.836 5.602 4.254 9.211 4.254 2.695 0 4.793-.726 6.293-2.179 1.5-1.43 2.25-3.469 2.25-6.117v-2.04c-2.344 2.649-5.426 3.973-9.246 3.973-4.57 0-8.273-1.781-11.109-5.344-2.813-3.586-4.219-8.332-4.219-14.238v-.422zm10.16.739c0 3.445.691 6.152 2.074 8.121 1.383 1.945 3.282 2.918 5.696 2.918 3.093 0 5.308-1.161 6.644-3.481V129.5c-1.359-2.32-3.551-3.48-6.574-3.48-2.438 0-4.359.996-5.766 2.988-1.383 1.992-2.074 4.969-2.074 8.93zm43.172 18.562h-10.195v-54h10.195v54zm25.91.703c-5.578 0-10.125-1.711-13.641-5.133-3.492-3.422-5.238-7.98-5.238-13.675v-.985c0-3.82.738-7.23 2.215-10.23 1.477-3.024 3.563-5.344 6.258-6.961 2.719-1.641 5.812-2.461 9.281-2.461 5.203 0 9.293 1.64 12.27 4.922 3 3.281 4.5 7.933 4.5 13.957v4.148H388.19c.328 2.485 1.312 4.477 2.953 5.977 1.664 1.5 3.762 2.25 6.293 2.25 3.914 0 6.973-1.418 9.176-4.254l4.992 5.59c-1.523 2.156-3.586 3.843-6.187 5.062-2.602 1.195-5.485 1.793-8.649 1.793zm-1.16-31.219c-2.016 0-3.656.68-4.922 2.039-1.242 1.36-2.039 3.305-2.391 5.836h14.133v-.808c-.047-2.25-.656-3.985-1.828-5.203-1.172-1.243-2.836-1.864-4.992-1.864zm51.75 12.481V156.5h-10.547v-51.188h19.969c3.844 0 7.219.704 10.125 2.11 2.929 1.406 5.179 3.41 6.75 6.012 1.57 2.578 2.355 5.519 2.355 8.824 0 5.015-1.722 8.976-5.168 11.883-3.422 2.882-8.168 4.324-14.238 4.324h-9.246zm0-8.543h9.422c2.789 0 4.91-.656 6.363-1.969 1.477-1.312 2.215-3.187 2.215-5.625 0-2.508-.738-4.535-2.215-6.082s-3.516-2.344-6.117-2.391h-9.668v16.067zm45.984 26.578h-10.195v-54h10.195v54zm30.446 0c-.469-.914-.809-2.051-1.02-3.41-2.461 2.742-5.66 4.113-9.598 4.113-3.726 0-6.82-1.078-9.281-3.234-2.437-2.157-3.656-4.875-3.656-8.157 0-4.031 1.488-7.124 4.465-9.281 3-2.156 7.324-3.246 12.972-3.269h4.676v-2.18c0-1.758-.457-3.164-1.371-4.219-.891-1.054-2.308-1.582-4.254-1.582-1.711 0-3.058.41-4.043 1.231-.961.82-1.441 1.945-1.441 3.375h-10.16c0-2.203.679-4.242 2.039-6.117s3.281-3.34 5.765-4.395c2.485-1.078 5.274-1.617 8.368-1.617 4.687 0 8.402 1.183 11.144 3.551 2.766 2.343 4.149 5.648 4.149 9.914v16.488c.023 3.609.527 6.34 1.511 8.191v.598h-10.265zm-8.403-7.066c1.5 0 2.883-.329 4.149-.985 1.265-.679 2.203-1.582 2.812-2.707v-6.539h-3.797c-5.086 0-7.793 1.758-8.121 5.274l-.035.597c0 1.266.445 2.309 1.336 3.129s2.109 1.231 3.656 1.231zm38.602-7.313l7.031-23.66h10.899l-15.293 43.945-.844 2.004c-2.274 4.969-6.024 7.453-11.25 7.453-1.477 0-2.977-.222-4.5-.668v-7.699l1.547.035c1.922 0 3.351-.293 4.289-.879.961-.586 1.711-1.558 2.25-2.918l1.195-3.129-13.324-38.144h10.933l7.067 23.66zM188.726 80.5V44.953h10.034c3.093 0 5.827.684 8.203 2.051s4.208 3.312 5.494 5.835c1.302 2.523 1.961 5.42 1.977 8.691v2.271c0 3.353-.651 6.291-1.953 8.813-1.286 2.523-3.133 4.46-5.542 5.811-2.393 1.351-5.184 2.043-8.374 2.075h-9.839zm4.688-31.69v27.857h4.931c3.613 0 6.421-1.123 8.423-3.369 2.018-2.246 3.027-5.444 3.027-9.595v-2.075c0-4.036-.952-7.17-2.856-9.399-1.888-2.246-4.574-3.385-8.057-3.418h-5.468zm26.22 18.237c0-2.588.505-4.915 1.514-6.983 1.025-2.067 2.441-3.662 4.248-4.785 1.823-1.123 3.898-1.685 6.226-1.685 3.597 0 6.502 1.245 8.715 3.735 2.23 2.49 3.345 5.802 3.345 9.937v.317c0 2.572-.496 4.883-1.489 6.934-.977 2.034-2.385 3.621-4.224 4.761-1.823 1.139-3.922 1.709-6.299 1.709-3.58 0-6.486-1.245-8.715-3.735-2.214-2.49-3.321-5.786-3.321-9.888v-.317zm4.541.537c0 2.93.676 5.282 2.027 7.056 1.367 1.774 3.19 2.661 5.468 2.661 2.295 0 4.118-.895 5.469-2.686 1.351-1.807 2.027-4.329 2.027-7.568 0-2.897-.692-5.241-2.076-7.031-1.367-1.807-3.19-2.71-5.468-2.71-2.23 0-4.029.887-5.396 2.661s-2.051 4.313-2.051 7.617zm48.56 6.689l5.078-20.19h4.517L274.639 80.5h-3.662l-6.421-20.019-6.25 20.02h-3.662l-7.666-26.416h4.492l5.2 19.775 6.153-19.775h3.637l6.275 20.19zm18.481-20.19l.147 3.32c2.018-2.539 4.655-3.809 7.91-3.809 5.583 0 8.398 3.149 8.447 9.448V80.5h-4.516V63.02c-.017-1.904-.456-3.312-1.319-4.224-.846-.912-2.173-1.367-3.979-1.367-1.465 0-2.751.391-3.858 1.172s-1.969 1.807-2.588 3.076V80.5h-4.516V54.084h4.272zM319.439 80.5h-4.517V43h4.517v37.5zm6.055-13.452c0-2.588.504-4.915 1.513-6.983 1.026-2.067 2.442-3.662 4.248-4.785 1.823-1.123 3.898-1.685 6.226-1.685 3.597 0 6.502 1.245 8.716 3.735 2.23 2.49 3.345 5.802 3.345 9.937v.317c0 2.572-.497 4.883-1.49 6.934-.976 2.034-2.384 3.621-4.223 4.761-1.823 1.139-3.923 1.709-6.299 1.709-3.581 0-6.486-1.245-8.716-3.735-2.214-2.49-3.32-5.786-3.32-9.888v-.317zm4.541.537c0 2.93.675 5.282 2.026 7.056 1.367 1.774 3.19 2.661 5.469 2.661 2.295 0 4.118-.895 5.469-2.686 1.35-1.807 2.026-4.329 2.026-7.568 0-2.897-.692-5.241-2.075-7.031-1.367-1.807-3.19-2.71-5.469-2.71-2.23 0-4.028.887-5.396 2.661s-2.05 4.313-2.05 7.617zM371.514 80.5c-.26-.521-.472-1.449-.635-2.783-2.099 2.181-4.606 3.271-7.519 3.271-2.604 0-4.745-.732-6.421-2.197-1.66-1.481-2.49-3.353-2.49-5.615 0-2.751 1.041-4.883 3.125-6.396 2.099-1.53 5.045-2.295 8.838-2.295h4.394V62.41c0-1.579-.472-2.832-1.416-3.76-.944-.944-2.335-1.416-4.175-1.416-1.611 0-2.962.407-4.052 1.221s-1.636 1.799-1.636 2.954h-4.541c0-1.318.464-2.588 1.391-3.809.944-1.237 2.214-2.214 3.809-2.93 1.611-.716 3.377-1.074 5.298-1.074 3.044 0 5.428.765 7.153 2.295 1.725 1.514 2.621 3.605 2.686 6.274v12.158c0 2.425.309 4.354.927 5.786v.391h-4.736zm-7.495-3.442c1.416 0 2.759-.366 4.028-1.099s2.189-1.685 2.759-2.856v-5.42h-3.54c-5.534 0-8.301 1.62-8.301 4.858 0 1.416.472 2.523 1.416 3.32s2.157 1.196 3.638 1.196zm17.285-9.985c0-4.053.96-7.308 2.881-9.766 1.921-2.474 4.435-3.711 7.544-3.711 3.092 0 5.542 1.058 7.349 3.174V43h4.516v37.5h-4.15l-.22-2.832c-1.807 2.213-4.321 3.32-7.544 3.32-3.06 0-5.558-1.253-7.495-3.76-1.921-2.507-2.881-5.778-2.881-9.814v-.342zm4.517.513c0 2.995.618 5.339 1.855 7.031s2.946 2.539 5.127 2.539c2.865 0 4.956-1.286 6.275-3.857V61.164c-1.351-2.49-3.426-3.735-6.226-3.735-2.213 0-3.939.855-5.176 2.563s-1.855 4.24-1.855 7.593zm36.011-.537c0-2.588.504-4.915 1.513-6.983 1.026-2.067 2.442-3.662 4.248-4.785 1.823-1.123 3.898-1.685 6.226-1.685 3.597 0 6.502 1.245 8.716 3.735 2.229 2.49 3.344 5.802 3.344 9.937v.317c0 2.572-.496 4.883-1.489 6.934-.976 2.034-2.384 3.621-4.223 4.761-1.823 1.139-3.923 1.709-6.299 1.709-3.581 0-6.486-1.245-8.716-3.735-2.214-2.49-3.32-5.786-3.32-9.888v-.317zm4.541.537c0 2.93.675 5.282 2.026 7.056 1.367 1.774 3.19 2.661 5.469 2.661 2.295 0 4.118-.895 5.468-2.686 1.351-1.807 2.027-4.329 2.027-7.568 0-2.897-.692-5.241-2.075-7.031-1.368-1.807-3.191-2.71-5.469-2.71-2.23 0-4.028.887-5.396 2.661s-2.05 4.313-2.05 7.617zm29.443-13.501l.146 3.32c2.019-2.539 4.655-3.809 7.911-3.809 5.582 0 8.398 3.149 8.447 9.448V80.5h-4.517V63.02c-.016-1.904-.456-3.312-1.318-4.224-.846-.912-2.173-1.367-3.98-1.367-1.464 0-2.75.391-3.857 1.172s-1.969 1.807-2.588 3.076V80.5h-4.517V54.084h4.273zm41.846-6.397v6.397h4.931v3.491h-4.931v16.382c0 1.058.219 1.856.659 2.393.439.521 1.188.781 2.246.781.521 0 1.237-.098 2.148-.293V80.5c-1.188.326-2.343.488-3.466.488-2.019 0-3.541-.61-4.566-1.831s-1.538-2.954-1.538-5.2V57.575h-4.81v-3.491h4.81v-6.397h4.517zm14.746 9.595c2.002-2.458 4.606-3.687 7.812-3.687 5.583 0 8.399 3.149 8.447 9.448V80.5h-4.516V63.02c-.016-1.904-.456-3.312-1.318-4.224-.847-.912-2.173-1.367-3.98-1.367-1.465 0-2.751.391-3.857 1.172a7.95 7.95 0 0 0-2.588 3.076V80.5h-4.517V43h4.517v14.282zm33.984 23.706c-3.581 0-6.494-1.172-8.74-3.516-2.246-2.36-3.369-5.51-3.369-9.448v-.83c0-2.62.496-4.956 1.489-7.007 1.009-2.067 2.409-3.678 4.199-4.834 1.807-1.172 3.76-1.758 5.86-1.758 3.434 0 6.103 1.131 8.007 3.394s2.857 5.501 2.857 9.717v1.88h-17.896c.065 2.604.822 4.712 2.271 6.323 1.465 1.595 3.32 2.393 5.566 2.393 1.595 0 2.946-.326 4.053-.977s2.075-1.514 2.905-2.588l2.759 2.148c-2.214 3.402-5.534 5.103-9.961 5.103zm-.561-23.682c-1.823 0-3.353.667-4.59 2.002-1.237 1.318-2.002 3.174-2.295 5.566h13.232v-.342c-.13-2.295-.748-4.069-1.855-5.322-1.107-1.27-2.604-1.904-4.492-1.904z"/></g></svg>