<svg xmlns="http://www.w3.org/2000/svg" width="607" height="207" fill="none" xmlns:v="https://vecta.io/nano"><rect x="2.5" y="2.5" width="602" height="202" rx="32.5" fill="#3e3e3e" stroke="#fff" stroke-width="5"/><path d="M209.983 114.066L196.061 156.5h-11.215l19.02-51.188h7.136l-1.019 8.754zm11.566 42.434l-13.957-42.434-1.125-8.754h7.207l19.125 51.188h-11.25zm-.632-19.055v8.262h-27.036v-8.262h27.036zm24.996-11.672v45.352h-10.125v-52.664h9.386l.739 7.312zm24.082 11.286v.738c0 2.765-.328 5.332-.985 7.699-.633 2.367-1.57 4.43-2.812 6.188a13.36 13.36 0 0 1-4.641 4.078c-1.828.961-3.937 1.441-6.328 1.441-2.32 0-4.336-.469-6.047-1.406s-3.152-2.25-4.324-3.938c-1.149-1.711-2.074-3.691-2.777-5.941s-1.243-4.664-1.618-7.242v-1.934c.375-2.765.914-5.297 1.618-7.594.703-2.32 1.628-4.324 2.777-6.011 1.172-1.711 2.601-3.035 4.289-3.973 1.711-.937 3.715-1.406 6.012-1.406 2.414 0 4.535.457 6.363 1.371 1.852.914 3.398 2.226 4.641 3.937 1.265 1.711 2.214 3.75 2.847 6.118.657 2.367.985 4.992.985 7.875zm-10.161.738v-.738c0-1.618-.14-3.106-.421-4.465-.258-1.383-.68-2.59-1.266-3.621-.563-1.032-1.313-1.828-2.25-2.391-.914-.586-2.027-.879-3.34-.879-1.383 0-2.566.223-3.551.668a5.92 5.92 0 0 0-2.355 1.934c-.609.843-1.067 1.851-1.371 3.023s-.492 2.496-.563 3.973v4.887c.117 1.734.446 3.292.985 4.675.539 1.36 1.371 2.438 2.496 3.235s2.601 1.195 4.429 1.195c1.336 0 2.461-.293 3.375-.879.915-.609 1.653-1.441 2.215-2.496.586-1.055.996-2.273 1.231-3.656.258-1.383.386-2.871.386-4.465zm26.579-12.024v45.352h-10.125v-52.664h9.386l.739 7.312zm24.082 11.286v.738c0 2.765-.328 5.332-.985 7.699-.633 2.367-1.57 4.43-2.812 6.188a13.36 13.36 0 0 1-4.641 4.078c-1.828.961-3.937 1.441-6.328 1.441-2.32 0-4.336-.469-6.047-1.406s-3.152-2.25-4.324-3.938c-1.149-1.711-2.074-3.691-2.777-5.941s-1.243-4.664-1.618-7.242v-1.934c.375-2.765.914-5.297 1.618-7.594.703-2.32 1.628-4.324 2.777-6.011 1.172-1.711 2.601-3.035 4.289-3.973 1.711-.937 3.715-1.406 6.012-1.406 2.414 0 4.535.457 6.363 1.371 1.852.914 3.398 2.226 4.641 3.937 1.265 1.711 2.214 3.75 2.847 6.118.657 2.367.985 4.992.985 7.875zm-10.161.738v-.738c0-1.618-.14-3.106-.421-4.465-.258-1.383-.68-2.59-1.266-3.621-.563-1.032-1.313-1.828-2.25-2.391-.914-.586-2.027-.879-3.34-.879-1.383 0-2.566.223-3.551.668a5.92 5.92 0 0 0-2.355 1.934c-.609.843-1.067 1.851-1.371 3.023s-.492 2.496-.563 3.973v4.887c.117 1.734.446 3.292.985 4.675.539 1.36 1.371 2.438 2.496 3.235s2.601 1.195 4.429 1.195c1.336 0 2.461-.293 3.375-.879.915-.609 1.653-1.441 2.215-2.496.586-1.055.996-2.273 1.231-3.656.258-1.383.386-2.871.386-4.465zm57.657-8.051v20.285c-.797.961-2.028 2.004-3.692 3.129-1.664 1.102-3.808 2.051-6.433 2.848s-5.801 1.195-9.528 1.195c-3.304 0-6.316-.539-9.035-1.617a19.53 19.53 0 0 1-7.031-4.816c-1.945-2.11-3.445-4.688-4.5-7.735-1.055-3.07-1.582-6.574-1.582-10.512v-3.199c0-3.937.504-7.441 1.512-10.512 1.031-3.07 2.496-5.66 4.394-7.769a18.81 18.81 0 0 1 6.785-4.816c2.625-1.102 5.543-1.653 8.754-1.653 4.453 0 8.11.727 10.969 2.18 2.859 1.43 5.039 3.422 6.539 5.976 1.524 2.532 2.461 5.438 2.813 8.719h-10.231c-.258-1.734-.75-3.246-1.476-4.535s-1.77-2.297-3.129-3.023c-1.336-.727-3.071-1.09-5.203-1.09-1.758 0-3.329.363-4.711 1.09-1.36.703-2.508 1.746-3.446 3.129s-1.652 3.093-2.144 5.132-.739 4.407-.739 7.102v3.269c0 2.672.258 5.039.774 7.102.516 2.039 1.277 3.762 2.285 5.168 1.031 1.383 2.297 2.426 3.797 3.129s3.246 1.055 5.238 1.055c1.664 0 3.047-.141 4.149-.422 1.125-.282 2.027-.621 2.707-1.02.703-.422 1.242-.82 1.617-1.195v-9.07h-9.633v-7.524h20.18zm28.406 18.176v-16.945c0-1.219-.199-2.262-.598-3.129-.398-.891-1.019-1.582-1.863-2.075-.82-.492-1.887-.738-3.199-.738-1.125 0-2.098.199-2.918.598-.82.375-1.453.926-1.899 1.652-.445.703-.668 1.535-.668 2.496h-10.125c0-1.617.375-3.152 1.125-4.605s1.84-2.731 3.27-3.832c1.43-1.125 3.129-2.004 5.098-2.637 1.992-.633 4.218-.949 6.679-.949 2.953 0 5.578.492 7.875 1.476s4.102 2.461 5.414 4.43c1.336 1.969 2.004 4.43 2.004 7.383v16.277c0 2.086.129 3.797.387 5.133.258 1.313.633 2.461 1.125 3.445v.598h-10.23c-.493-1.031-.868-2.32-1.125-3.867a31.8 31.8 0 0 1-.352-4.711zm1.336-14.59l.07 5.73h-5.66c-1.336 0-2.496.153-3.48.458s-1.793.738-2.426 1.3c-.633.539-1.102 1.172-1.406 1.899-.282.726-.422 1.523-.422 2.39s.199 1.653.597 2.356c.399.68.973 1.219 1.723 1.617.75.375 1.629.563 2.637.563 1.523 0 2.847-.305 3.972-.915s1.993-1.359 2.602-2.25c.633-.89.961-1.734.984-2.531l2.672 4.289c-.375.961-.89 1.957-1.547 2.989-.632 1.031-1.441 2.003-2.425 2.918-.985.89-2.168 1.628-3.551 2.214-1.383.563-3.024.844-4.922.844-2.414 0-4.606-.48-6.574-1.441-1.946-.985-3.493-2.332-4.641-4.043-1.125-1.735-1.687-3.703-1.687-5.907 0-1.992.375-3.761 1.125-5.308s1.851-2.848 3.304-3.902c1.477-1.079 3.317-1.887 5.52-2.426 2.203-.563 4.758-.844 7.664-.844h5.871zm27.351-30.832v54h-10.16v-54h10.16zm19.055 0v54h-10.16v-54h10.16zm25.875 54.703c-2.953 0-5.601-.469-7.945-1.406-2.344-.961-4.336-2.285-5.977-3.973-1.617-1.687-2.859-3.644-3.726-5.871-.867-2.25-1.301-4.641-1.301-7.172v-1.406c0-2.883.41-5.52 1.23-7.91s1.993-4.465 3.516-6.223c1.547-1.758 3.422-3.105 5.625-4.043 2.203-.961 4.688-1.441 7.453-1.441 2.695 0 5.086.445 7.172 1.336s3.832 2.156 5.238 3.797c1.43 1.64 2.508 3.609 3.235 5.906.726 2.273 1.09 4.805 1.09 7.594v4.218h-30.235v-6.75h20.285v-.773c0-1.406-.257-2.66-.773-3.762-.492-1.125-1.242-2.015-2.25-2.672s-2.297-.984-3.867-.984c-1.336 0-2.485.293-3.446.879s-1.746 1.406-2.355 2.461c-.586 1.054-1.031 2.297-1.336 3.726-.281 1.407-.422 2.954-.422 4.641v1.406c0 1.524.211 2.93.633 4.219.445 1.289 1.066 2.402 1.863 3.34.821.937 1.805 1.664 2.953 2.18 1.172.515 2.496.773 3.973.773 1.828 0 3.527-.352 5.098-1.055 1.593-.726 2.964-1.816 4.113-3.269l4.922 5.343c-.797 1.149-1.887 2.25-3.27 3.305-1.359 1.055-3 1.922-4.922 2.602-1.921.656-4.113.984-6.574.984zm31.5-30.445V156.5h-10.125v-38.039h9.528l.597 8.297zm11.461-8.543l-.176 9.387a24.14 24.14 0 0 0-1.793-.176c-.679-.071-1.3-.106-1.863-.106-1.43 0-2.672.188-3.726.563-1.032.351-1.899.879-2.602 1.582-.68.703-1.195 1.558-1.547 2.566-.328 1.008-.516 2.157-.562 3.446l-2.039-.633c0-2.461.246-4.723.738-6.785.492-2.086 1.207-3.903 2.144-5.45.961-1.547 2.133-2.742 3.516-3.586s2.965-1.265 4.746-1.265a10.98 10.98 0 0 1 1.723.14c.586.071 1.066.176 1.441.317zm16.699 33.996l10.09-33.75h10.863l-15.293 43.769c-.328.961-.773 1.993-1.335 3.094-.54 1.102-1.278 2.145-2.215 3.129-.914 1.008-2.075 1.828-3.481 2.461-1.383.633-3.082.949-5.097.949-.961 0-1.747-.058-2.356-.175a42.54 42.54 0 0 1-2.18-.493v-7.418h.809a9.51 9.51 0 0 0 .809.035c1.336 0 2.425-.152 3.269-.457s1.524-.773 2.039-1.406c.516-.609.926-1.406 1.231-2.39l2.847-7.348zm-4.218-33.75l8.261 27.562 1.442 10.723-6.891.738-13.676-39.023h10.864zM211.309 76.667V80.5h-18.823v-3.833h18.823zm-17.871-31.714V80.5h-4.712V44.953h4.712zm15.381 15.283v3.833h-16.333v-3.833h16.333zm2.246-15.283v3.857h-18.579v-3.857h18.579zm8.447 9.131l5.786 9.619 5.86-9.619h5.298l-8.643 13.037 8.911 13.379H231.5l-6.104-9.912-6.104 9.912h-5.249l8.887-13.379-8.618-13.037h5.2zm26.27 5.078v31.494h-4.541V54.084h4.15l.391 5.078zm17.798 7.91v.513c0 1.921-.228 3.703-.684 5.347-.456 1.628-1.123 3.044-2.002 4.248-.863 1.204-1.929 2.14-3.198 2.808s-2.726 1.001-4.37 1.001c-1.677 0-3.158-.277-4.444-.83s-2.376-1.359-3.271-2.417-1.611-2.328-2.149-3.809c-.52-1.481-.879-3.149-1.074-5.005v-2.734c.195-1.953.562-3.703 1.099-5.249s1.245-2.864 2.124-3.955c.895-1.107 1.977-1.945 3.247-2.515 1.269-.586 2.734-.879 4.394-.879s3.134.325 4.419.977c1.286.635 2.369 1.546 3.247 2.734s1.539 2.612 1.978 4.272c.456 1.644.684 3.475.684 5.493zm-4.541.513v-.513c0-1.318-.139-2.555-.415-3.711-.277-1.172-.708-2.197-1.294-3.076-.57-.895-1.302-1.595-2.198-2.1-.895-.521-1.961-.781-3.198-.781-1.139 0-2.132.195-2.978.586a6.43 6.43 0 0 0-2.124 1.587c-.586.651-1.067 1.4-1.441 2.246a12.91 12.91 0 0 0-.806 2.588v6.323a14.14 14.14 0 0 0 1.368 3.223 7.08 7.08 0 0 0 2.343 2.417c.977.602 2.206.903 3.687.903 1.221 0 2.27-.252 3.149-.757.896-.521 1.628-1.229 2.198-2.124.586-.895 1.017-1.921 1.294-3.076.276-1.172.415-2.417.415-3.735zM274.249 43v37.5h-4.541V43h4.541zm6.054 24.585v-.562c0-1.904.277-3.67.83-5.298.554-1.644 1.351-3.068 2.393-4.273a10.67 10.67 0 0 1 3.784-2.832c1.481-.684 3.141-1.025 4.981-1.025 1.855 0 3.523.342 5.004 1.025a10.62 10.62 0 0 1 3.809 2.832c1.058 1.205 1.864 2.629 2.417 4.273.553 1.628.83 3.394.83 5.298v.562c0 1.904-.277 3.67-.83 5.298s-1.359 3.052-2.417 4.272c-1.042 1.204-2.303 2.148-3.784 2.832-1.465.667-3.125 1.001-4.981 1.001s-3.523-.334-5.005-1.001c-1.481-.684-2.75-1.628-3.808-2.832-1.042-1.221-1.839-2.645-2.393-4.272s-.83-3.394-.83-5.298zm4.517-.562v.562c0 1.318.154 2.563.464 3.735.309 1.156.773 2.181 1.391 3.076a7.05 7.05 0 0 0 2.368 2.124c.944.505 2.043.757 3.296.757 1.237 0 2.32-.252 3.247-.757a6.81 6.81 0 0 0 2.344-2.124c.619-.895 1.083-1.921 1.392-3.076a13.92 13.92 0 0 0 .488-3.735v-.562a13.56 13.56 0 0 0-.488-3.686c-.309-1.172-.781-2.205-1.416-3.101a6.73 6.73 0 0 0-2.344-2.148c-.928-.521-2.018-.781-3.271-.781-1.237 0-2.328.261-3.272.781a7.03 7.03 0 0 0-2.344 2.148c-.618.895-1.082 1.929-1.391 3.101-.31 1.156-.464 2.385-.464 3.686zm29.712-8.789V80.5h-4.517V54.084h4.395l.122 4.15zm8.252-4.297l-.025 4.199c-.374-.081-.732-.13-1.074-.146a11.58 11.58 0 0 0-1.123-.049c-1.042 0-1.961.163-2.759.488s-1.473.781-2.026 1.367-.993 1.286-1.319 2.1c-.309.797-.512 1.676-.61 2.637l-1.269.732c0-1.595.154-3.092.463-4.492.326-1.4.822-2.637 1.49-3.711.667-1.09 1.513-1.937 2.539-2.539 1.041-.619 2.278-.928 3.711-.928a6.03 6.03 0 0 1 1.123.122c.423.065.716.138.879.22zm14.648 27.051c-1.839 0-3.507-.309-5.005-.928-1.481-.635-2.759-1.522-3.833-2.661-1.058-1.139-1.872-2.49-2.441-4.053s-.855-3.272-.855-5.127v-1.025c0-2.148.318-4.061.952-5.737.635-1.693 1.498-3.125 2.588-4.297s2.328-2.059 3.711-2.661a10.66 10.66 0 0 1 4.297-.903c1.888 0 3.516.325 4.883.977 1.383.651 2.515 1.563 3.394 2.734.878 1.156 1.53 2.523 1.953 4.102.423 1.563.634 3.271.634 5.127v2.026h-19.726v-3.686h15.21v-.342a11.24 11.24 0 0 0-.733-3.418c-.406-1.107-1.058-2.018-1.953-2.734s-2.116-1.074-3.662-1.074a6.15 6.15 0 0 0-2.832.659c-.862.423-1.603 1.058-2.222 1.904s-1.098 1.88-1.44 3.101-.513 2.629-.513 4.224v1.025c0 1.253.171 2.433.513 3.54a9.06 9.06 0 0 0 1.538 2.881 7.38 7.38 0 0 0 2.466 1.953c.977.472 2.083.708 3.32.708 1.595 0 2.946-.326 4.053-.977s2.075-1.522 2.905-2.612l2.735 2.173c-.57.863-1.294 1.685-2.173 2.466s-1.961 1.416-3.247 1.904c-1.27.488-2.775.732-4.517.732zm32.861-26.904V80.5h-4.541V54.084h4.541zm-4.882-7.007c0-.732.219-1.351.659-1.855.456-.505 1.123-.757 2.002-.757.862 0 1.522.252 1.977.757.472.505.708 1.123.708 1.855a2.55 2.55 0 0 1-.708 1.807c-.455.488-1.115.732-1.977.732-.879 0-1.546-.244-2.002-.732-.44-.505-.659-1.107-.659-1.807zm23.193 7.007v3.467h-14.282v-3.467h14.282zm-9.448-6.421h4.516v26.294c0 .895.139 1.571.415 2.026s.635.757 1.075.903.911.22 1.416.22c.374 0 .765-.032 1.172-.098l.952-.195.024 3.686c-.358.114-.83.22-1.416.317-.57.114-1.261.171-2.075.171-1.107 0-2.124-.22-3.052-.659s-1.668-1.172-2.222-2.197c-.537-1.042-.805-2.441-.805-4.199V47.663zm25.952 19.922v-.562c0-1.904.277-3.67.83-5.298.553-1.644 1.351-3.068 2.393-4.273a10.67 10.67 0 0 1 3.784-2.832c1.481-.684 3.141-1.025 4.98-1.025 1.856 0 3.524.342 5.005 1.025a10.62 10.62 0 0 1 3.809 2.832c1.058 1.205 1.863 2.629 2.417 4.273.553 1.628.83 3.394.83 5.298v.562c0 1.904-.277 3.67-.83 5.298s-1.359 3.052-2.417 4.272c-1.042 1.204-2.303 2.148-3.784 2.832-1.465.667-3.125 1.001-4.981 1.001s-3.524-.334-5.005-1.001c-1.481-.684-2.75-1.628-3.808-2.832-1.042-1.221-1.84-2.645-2.393-4.272s-.83-3.394-.83-5.298zm4.517-.562v.562c0 1.318.154 2.563.463 3.735.31 1.156.773 2.181 1.392 3.076a7.05 7.05 0 0 0 2.368 2.124c.944.505 2.043.757 3.296.757 1.237 0 2.319-.252 3.247-.757a6.82 6.82 0 0 0 2.344-2.124c.618-.895 1.082-1.921 1.391-3.076a13.88 13.88 0 0 0 .489-3.735v-.562c0-1.302-.163-2.531-.489-3.686-.309-1.172-.781-2.205-1.416-3.101-.618-.911-1.399-1.628-2.343-2.148-.928-.521-2.019-.781-3.272-.781-1.237 0-2.327.261-3.271.781a7.03 7.03 0 0 0-2.344 2.148c-.619.895-1.082 1.929-1.392 3.101a14.22 14.22 0 0 0-.463 3.686zm29.711-7.3V80.5h-4.516V54.084h4.272l.244 5.64zm-1.074 6.567l-1.88-.073c.017-1.807.285-3.475.806-5.005.521-1.546 1.253-2.889 2.197-4.028a9.8 9.8 0 0 1 3.369-2.637c1.319-.635 2.775-.952 4.371-.952 1.302 0 2.473.179 3.515.537 1.042.342 1.929.895 2.661 1.66.749.765 1.319 1.758 1.709 2.979.391 1.204.586 2.677.586 4.419V80.5h-4.541V63.142c0-1.383-.203-2.49-.61-3.32-.407-.846-1.001-1.457-1.782-1.831-.782-.391-1.742-.586-2.881-.586-1.123 0-2.149.236-3.076.708-.912.472-1.701 1.123-2.369 1.953-.651.83-1.163 1.782-1.538 2.857a10.44 10.44 0 0 0-.537 3.369z" fill="#fff"/><g clip-path="url(#A)" fill="#fff"><path d="M74.6 44.06c-6.24.24-11.34 1.14-15.48 2.76-2.04.78-4.38 2.101-5.94 3.361-.78.6-2.4 2.28-3.06 3.06-1.62 2.04-3.12 4.92-4.02 7.8-1.02 3.18-1.56 6.299-1.98 11.579-.12 1.38-.18 58.321-.06 61.141.3 7.08 1.38 12.48 3.42 16.74 3.24 6.78 8.88 10.8 17.7 12.54 3.06.6 5.88.9 10.08 1.02 3.48.12 58.14.06 59.76-.06 6.12-.42 10.08-1.2 13.86-2.7 1.14-.42 3-1.381 3.96-1.981 2.52-1.56 4.92-3.959 6.42-6.419 2.4-3.9 3.9-8.88 4.44-15.36.3-3.12.3-2.821.3-31.621.06-31.68 0-32.459-.48-36.659-1.26-11.16-5.4-18-13.14-21.66-4.2-1.98-9.54-3.06-16.56-3.42C132.38 44 76.4 44 74.6 44.06zM86.84 64.7c.24 3.48 1.2 6.48 3.06 9.06 2.82 4.02 7.08 6.66 11.88 7.26 1.08.12 3.18.181 4.14.061a17.82 17.82 0 0 0 8.76-3.661 17.49 17.49 0 0 0 6.42-12.479l.06-.9h1.44 1.44l-.06.96c-.18 4.2-1.74 8.28-4.44 11.64-.6.72-2.16 2.34-2.88 2.94s-2.16 1.559-3 2.039c-2.28 1.26-4.98 2.1-7.74 2.4-1.08.12-3.78.061-4.74-.12-4.38-.72-8.04-2.52-11.1-5.52-3.6-3.54-5.76-8.28-5.94-13.2l-.06-1.08h1.32 1.38l.06.6zm-26.28 42.419v3.181h3.6 3.6v-3.181-3.179h1.56 1.56v7.86 7.86h-1.56-1.56v-3.18-3.18h-3.6-3.6v3.18 3.18H59h-1.56v-7.86-7.86H59h1.56v3.179zm18 1.561c0 3.78 0 4.86.12 5.28.36 1.86 1.38 2.76 3.18 2.88 1.98.12 3.18-.72 3.66-2.4.12-.36.12-.9.18-5.46v-5.04h1.62 1.62v4.379c0 4.68-.06 5.881-.3 6.841-.6 2.52-2.22 4.08-4.74 4.62-.48.12-.9.12-1.8.12-1.74 0-2.94-.3-4.02-1.02-1.5-1.02-2.4-2.641-2.64-4.861-.06-.78-.12-9.959 0-10.019 0 0 .78-.06 1.62-.06h1.56v4.74h-.06zm25.08 3l3.42 7.86.06.179h-1.68-1.68l-.72-1.619-.72-1.62h-3.6-3.6l-.72 1.62-.72 1.619h-1.62c-1.62 0-1.62.001-1.62-.119 0-.06 1.56-3.6 3.42-7.86l3.42-7.74h1.44 1.44l3.48 7.68zm7.38-2.4l1.74 5.339.54-1.5c.24-.84 1.08-3.239 1.74-5.339l1.26-3.84h1.32 1.32l1.56 4.8 1.74 5.34c.12.3.18.539.18.539.06 0 .72-2.099 3.06-9.359l.42-1.32h1.68c1.02 0 1.62 0 1.62.06s-5.22 15.06-5.34 15.48l-.12.239h-1.32-1.32l-1.74-5.1-1.8-5.1s-.84 2.221-1.74 4.921l-1.8 5.1c-.06.12-.18.12-1.38.12h-1.32l-2.7-7.8-2.7-7.86c0-.06.36-.06 1.68-.06h1.68l1.74 5.34zm32.34-3.84v1.5h-4.2-4.2v1.56 1.56h2.88 2.88v1.44 1.44h-2.88-2.88v1.92 1.92h4.32 4.32v1.439 1.441h-5.94-5.94v-7.86-7.86h5.76 5.76v1.5h.12zm7.26 6.36v7.86h-1.56-1.56v-7.86-7.86h1.56 1.56v7.86zm-53.04-1.081l-1.14 2.761c0 .06.48.12 2.34.12l2.34-.06c0-.06-2.28-5.4-2.34-5.4-.06-.06-.54 1.139-1.2 2.579z"/></g><defs><clipPath id="A"><path fill="#fff" transform="translate(44 44)" d="M0 0h120v120H0z"/></clipPath></defs></svg>