<svg width="75" height="72" viewBox="0 0 75 72" fill="none" xmlns="http://www.w3.org/2000/svg">
<path d="M64.863 22.7128L60.012 21.4108C59.4441 21.2584 58.8328 21.3172 58.3125 21.5742C57.7923 21.8312 57.4058 22.2655 57.238 22.7814L56.2938 25.6844L65.4275 28.1359L66.3701 25.2378C66.5379 24.7219 66.4732 24.1665 66.1903 23.6939C65.9073 23.2213 65.4293 22.8702 64.8614 22.7178L64.863 22.7128Z" fill="#5193EA"/>
<path d="M2.43136 24.1443C-0.88953 37.1117 1.23516 48.03 7.4953 49.3547C13.7554 50.6794 21.7757 41.9033 25.0966 28.9359C28.4175 15.9685 25.3871 5.90914 19.7763 3.06314C14.5757 0.418937 5.75225 11.1768 2.43136 24.1443Z" fill="#5193EA"/>
<path d="M14.9402 32.5634C10.4541 32.5634 6.81742 29.2598 6.81742 25.1845C6.81742 21.1092 10.4541 17.8056 14.9402 17.8056C19.4263 17.8056 23.063 21.1093 23.063 25.1845C23.063 29.2598 19.4263 32.5634 14.9402 32.5634Z" fill="white"/>
<path d="M17.5776 4.543C19.9928 17.4225 12.77 34.6175 4.37947 44.475C3.06934 48.8993 4.64719 51.9212 10.389 49.9911L27.7396 42.281L40.9435 45.8515C40.9435 45.8515 27.8744 61.5124 26.8377 64.436C25.9263 67.0233 27.7263 69.2897 31.4231 71.1629C34.5732 72.7463 38.4922 72.0736 40.2694 69.2276L54.1416 49.4167L56.5055 50.0584C63.6998 52.004 71.4581 48.506 73.7992 42.043C74.3728 40.457 74.5912 38.7828 74.4416 37.119C74.2919 35.4552 73.7773 33.8354 72.928 32.3551C72.0787 30.8747 70.9119 29.5637 69.4963 28.4992C68.0807 27.4348 66.4449 26.6385 64.6853 26.1571L35.6346 18.297L25.7744 3.08894C22.1004 -1.3767 19.3377 -0.755747 17.5776 4.543Z" fill="#74B0FF"/>
<path d="M53.4807 50.3224C53.6507 50.3195 53.8141 50.2619 53.9417 50.1598C54.0693 50.0577 54.1529 49.9177 54.1775 49.7649C54.2021 49.612 54.1662 49.4562 54.0761 49.3252C53.9861 49.1942 53.8478 49.0964 53.6858 49.0494L41.2396 45.6808C41.1471 45.6488 41.0484 45.6345 40.9495 45.6388C40.8507 45.6431 40.7539 45.6659 40.6653 45.7058C40.5766 45.7457 40.498 45.8019 40.4344 45.8707C40.3707 45.9395 40.3234 46.0196 40.2955 46.1058C40.2675 46.192 40.2595 46.2825 40.2719 46.3717C40.2843 46.4609 40.3168 46.5468 40.3675 46.624C40.4182 46.7012 40.4859 46.768 40.5664 46.8203C40.6468 46.8726 40.7383 46.9092 40.8351 46.9279L53.2757 50.2965C53.3426 50.3127 53.4115 50.3214 53.4807 50.3224Z" fill="#5193EA"/>
<path d="M21.9644 0.175735C23.0523 0.449986 23.6277 1.01401 24.4536 1.89369L17.5783 4.54823C17.5783 4.54823 16.2739 0.739759 10.0479 8.17042C13.4201 2.78888 17.7834 -0.859177 21.9644 0.175735Z" fill="#74B0FF"/>
<path d="M5.5359 50.2189C6.58401 50.6018 7.54094 50.4362 8.78271 50.1878L5.71248 42.8296C5.71248 42.8296 2.08969 47.4505 0.904884 37.0341C-0.029295 43.1815 1.52008 48.7493 5.5359 50.2189Z" fill="#74B0FF"/>
<path d="M27.739 42.9331C27.849 42.9333 27.9575 42.9106 28.0563 42.8666C28.1551 42.8227 28.2414 42.7587 28.3086 42.6796C37.7472 31.5595 36.3687 18.768 36.2833 18.2298C36.2516 18.0675 36.1535 17.9222 36.0086 17.823C35.8637 17.7238 35.6828 17.6781 35.5024 17.6952C35.3219 17.7122 35.1553 17.7907 35.0359 17.9149C34.9166 18.039 34.8535 18.1996 34.8592 18.3644C34.8592 18.4937 36.232 31.1921 27.1522 41.8827C27.0942 41.9503 27.0514 42.0276 27.0263 42.1102C27.0011 42.1929 26.9942 42.2792 27.0058 42.3642C27.0175 42.4493 27.0475 42.5315 27.0941 42.606C27.1407 42.6805 27.2031 42.746 27.2776 42.7986C27.4104 42.8892 27.5729 42.9366 27.739 42.9331Z" fill="#5193EA"/>
</svg>
